<svg xmlns="http://www.w3.org/2000/svg" height="24" viewBox="0 -960 960 960" width="24"><path d="M375.385-624.615v-40h329.23v40h-329.23Zm0 110.769v-40h329.23v40h-329.23ZM473.846-160H200h273.846Zm0 40H240q-33.846 0-56.923-23.077Q160-166.154 160-200v-110.769h120V-840h520v315.615q-10.769.308-20.5 2.27-9.731 1.961-19.5 5.577V-800H320v489.231h213.846l-40 40H200V-200q0 17 11.5 28.5T240-160h233.846v40Zm95.385 0v-88.385l213.307-212.307q5.924-5.923 12.308-8 6.385-2.077 12.769-2.077 6.616 0 13.385 2.577t11.923 7.73l37 37.77q4.923 5.923 7.5 12.307Q880-364 880-357.615q0 6.384-2.461 12.884-2.462 6.5-7.616 12.424L657.616-120h-88.385Zm275.384-237.615-37-37.77 37 37.77Zm-240 202.23h38l138.693-138.922-18.77-19-18.23-19.539-139.693 139.461v38Zm157.923-157.922-18.23-19.539 37 38.539-18.77-19Z"/></svg>