<svg xmlns="http://www.w3.org/2000/svg" height="24" viewBox="0 -960 960 960" width="24"><path d="M720.118-106Q681-106 653.5-133.417 626-160.833 626-200q0-8.273 1.5-17.136Q629-226 632-234L314-422q-14 17-33 26.5t-41 9.5q-39.167 0-66.583-27.382Q146-440.765 146-479.882 146-519 173.417-546.5 200.833-574 240-574q22 0 41 9.5t33 26.5l318-188q-3-8-4.5-16.864Q626-751.727 626-760q0-39.167 27.382-66.583Q680.765-854 719.882-854 759-854 786.5-826.618q27.5 27.383 27.5 66.5Q814-721 786.583-693.5 759.167-666 720-666q-22 0-41-9.5T646-702L328-514q3 8 4.5 16.793t1.5 17Q334-472 332.5-463t-4.5 17l318 188q14-17 33-26.5t41-9.5q39.167 0 66.583 27.382Q814-239.235 814-200.118 814-161 786.618-133.5q-27.383 27.5-66.5 27.5ZM720-694q27 0 46.5-19.5T786-760q0-27-19.5-46.5T720-826q-27 0-46.5 19.5T654-760q0 27 19.5 46.5T720-694ZM240-414q27 0 46.5-19.5T306-480q0-27-19.5-46.5T240-546q-27 0-46.5 19.5T174-480q0 27 19.5 46.5T240-414Zm480 280q27 0 46.5-19.5T786-200q0-27-19.5-46.5T720-266q-27 0-46.5 19.5T654-200q0 27 19.5 46.5T720-134Zm0-626ZM240-480Zm480 280Z"/></svg>